<svg width="190" height="67" viewBox="0 0 190 67" fill="none" xmlns="http://www.w3.org/2000/svg">
<path d="M11.4672 35.8928H1.53906V33.9019L4.77147 33.1745V11.3134L1.53906 10.5477V8.5568H11.4672V10.5477L8.23476 11.3134V33.1745L11.4672 33.9019V35.8928ZM26.6236 14.9888C29.0864 14.9888 30.9463 15.5886 32.2034 16.7882C33.4603 17.9623 34.0889 19.8766 34.0889 22.5311V35.8928H30.7411V22.7608C30.7411 21.1018 30.369 19.8638 29.6252 19.0471C28.881 18.2303 27.7138 17.8219 26.1234 17.8219C23.8401 17.8219 22.2624 18.46 21.3902 19.7362C20.5179 21.0124 20.0818 22.8501 20.0818 25.2494V35.8928H16.6955V15.3717H19.4276L19.9279 18.1665H20.1203C20.582 17.4518 21.1464 16.8648 21.8135 16.4054C22.5061 15.9204 23.2629 15.5631 24.0839 15.3334C24.9047 15.1037 25.7513 14.9888 26.6236 14.9888ZM47.756 33.5191C48.269 33.5191 48.795 33.4808 49.3337 33.4042C49.8724 33.302 50.3085 33.2001 50.642 33.0979V35.6631C50.283 35.8418 49.7697 35.982 49.1028 36.0842C48.4359 36.2118 47.7944 36.2757 47.1788 36.2757C46.1013 36.2757 45.1008 36.0969 44.1772 35.7397C43.2794 35.3568 42.5483 34.7059 41.9838 33.7871C41.4193 32.8682 41.1372 31.5792 41.1372 29.9202V17.9751H38.2127V16.3671L41.1757 15.0271L42.5225 10.6625H44.5236V15.3717H50.4881V17.9751H44.5236V29.8437C44.5236 31.0944 44.8187 32.0259 45.4086 32.6385C46.0243 33.2255 46.8067 33.5191 47.756 33.5191ZM63.1224 14.9888C64.8928 14.9888 66.4063 15.3717 67.6632 16.1374C68.946 16.9031 69.9208 17.9878 70.588 19.3917C71.2804 20.7699 71.6267 22.3907 71.6267 24.2539V26.2831H57.5042C57.5556 28.6058 58.1456 30.3797 59.2743 31.6048C60.4287 32.8043 62.0322 33.4042 64.0844 33.4042C65.3928 33.4042 66.5472 33.2894 67.5477 33.0597C68.574 32.8043 69.6257 32.4471 70.7032 31.9877V34.9357C69.6514 35.3951 68.6124 35.727 67.5862 35.9311C66.5602 36.1608 65.3415 36.2757 63.9305 36.2757C61.981 36.2757 60.2493 35.8801 58.7356 35.0888C57.2478 34.2975 56.0804 33.1235 55.2338 31.5665C54.4129 29.9841 54.0024 28.0569 54.0024 25.7854C54.0024 23.5393 54.3745 21.6122 55.1183 20.0042C55.888 18.3962 56.9527 17.1583 58.3123 16.2905C59.6976 15.4227 61.301 14.9888 63.1224 14.9888ZM63.0839 17.7454C61.4677 17.7454 60.1851 18.2686 59.2358 19.3151C58.3123 20.336 57.7608 21.7654 57.5811 23.6031H68.0867C68.0867 22.429 67.907 21.408 67.5477 20.5402C67.1886 19.6724 66.6372 18.996 65.893 18.5111C65.1749 18.0006 64.2383 17.7454 63.0839 17.7454ZM80.6488 35.8928H77.2625V6.79565H80.6488V35.8928ZM90.9545 35.8928H87.5682V6.79565H90.9545V35.8928ZM105.686 15.0271C108.2 15.0271 110.06 15.5758 111.265 16.6734C112.471 17.7709 113.074 19.5193 113.074 21.9185V35.8928H110.611L109.957 32.9831H109.803C109.213 33.7232 108.597 34.3487 107.956 34.8591C107.34 35.3441 106.622 35.7014 105.801 35.9311C105.006 36.1608 104.031 36.2757 102.876 36.2757C101.645 36.2757 100.529 36.0586 99.5286 35.6248C98.5538 35.191 97.7842 34.5272 97.2197 33.6339C96.6552 32.7151 96.3731 31.5665 96.3731 30.1882C96.3731 28.1464 97.1812 26.5767 98.7974 25.4791C100.414 24.3561 102.902 23.7435 106.263 23.6414L109.765 23.5265V22.3014C109.765 20.5913 109.392 19.4044 108.649 18.7408C107.905 18.0772 106.853 17.7454 105.493 17.7454C104.416 17.7454 103.389 17.9113 102.415 18.2431C101.44 18.5494 100.529 18.9067 99.6825 19.3151L98.6435 16.7882C99.5413 16.3033 100.606 15.8949 101.837 15.5631C103.069 15.2058 104.351 15.0271 105.686 15.0271ZM106.686 25.9768C104.121 26.079 102.338 26.4872 101.337 27.2019C100.362 27.9167 99.8749 28.9248 99.8749 30.2265C99.8749 31.3751 100.221 32.2174 100.914 32.7534C101.632 33.2894 102.543 33.5574 103.646 33.5574C105.39 33.5574 106.84 33.0853 107.994 32.1408C109.149 31.171 109.726 29.6905 109.726 27.6997V25.8619L106.686 25.9768ZM155.415 15.3717H159.032L163.496 27.0488C163.752 27.7379 163.983 28.4015 164.188 29.0397C164.419 29.6778 164.624 30.3031 164.804 30.9157C164.983 31.5026 165.124 32.0769 165.227 32.6385H165.381C165.535 32.0003 165.779 31.171 166.112 30.1499C166.446 29.1035 166.792 28.0569 167.151 27.0105L171.346 15.3717H175.001L166.112 38.7259C165.625 40.002 165.048 41.1123 164.381 42.0568C163.739 43.0266 162.944 43.767 161.995 44.2774C161.071 44.8134 159.942 45.0814 158.608 45.0814C157.993 45.0814 157.454 45.0431 156.992 44.9665C156.53 44.9155 156.133 44.8517 155.799 44.7751V42.0951C156.081 42.146 156.415 42.1973 156.8 42.2482C157.21 42.2992 157.633 42.3248 158.07 42.3248C158.865 42.3248 159.545 42.1717 160.109 41.8654C160.699 41.5847 161.199 41.1635 161.61 40.6019C162.02 40.0659 162.367 39.4278 162.649 38.6877L163.726 35.9694L155.415 15.3717Z" fill="white"/>
<path d="M4.79181 46.3257V47.2446H0.837891V46.3257H4.79181ZM9.68814 50.317C9.06604 50.317 8.49203 50.1734 7.96611 49.8863C7.44662 49.5927 7.03295 49.1876 6.7251 48.6707C6.42367 48.1474 6.27295 47.5604 6.27295 46.9096C6.27295 46.2587 6.42367 45.6749 6.7251 45.158C7.03295 44.6411 7.44662 44.2391 7.96611 43.952C8.49203 43.6584 9.06604 43.5117 9.68814 43.5117C10.3167 43.5117 10.8907 43.6584 11.4102 43.952C11.9361 44.2391 12.3497 44.6411 12.6512 45.158C12.9526 45.6749 13.1033 46.2587 13.1033 46.9096C13.1033 47.5604 12.9526 48.1474 12.6512 48.6707C12.3497 49.1876 11.9361 49.5927 11.4102 49.8863C10.8907 50.1734 10.3167 50.317 9.68814 50.317ZM9.68814 49.3694C10.1307 49.3694 10.5251 49.2706 10.8714 49.0727C11.2178 48.8686 11.4871 48.5815 11.6795 48.2113C11.8784 47.8349 11.9778 47.4008 11.9778 46.9096C11.9778 46.4183 11.8784 45.9876 11.6795 45.6174C11.4871 45.2473 11.2178 44.9635 10.8714 44.7656C10.5251 44.5677 10.1307 44.4689 9.68814 44.4689C9.24561 44.4689 8.85118 44.5677 8.50485 44.7656C8.15852 44.9635 7.88595 45.2473 7.68713 45.6174C7.49472 45.9876 7.39852 46.4183 7.39852 46.9096C7.39852 47.4008 7.49472 47.8349 7.68713 48.2113C7.88595 48.5815 8.15852 48.8686 8.50485 49.0727C8.85118 49.2706 9.24561 49.3694 9.68814 49.3694ZM15.5582 43.5979V47.838C15.5582 48.3422 15.6897 48.7217 15.9527 48.977C16.222 49.2323 16.594 49.3599 17.0686 49.3599C17.5496 49.3599 17.9216 49.2323 18.1846 48.977C18.4539 48.7217 18.5886 48.3422 18.5886 47.838V43.5979H19.6853V47.8189C19.6853 48.3613 19.5667 48.8207 19.3294 49.1971C19.0921 49.5735 18.7746 49.8545 18.377 50.0394C17.9793 50.2244 17.54 50.317 17.059 50.317C16.578 50.317 16.1387 50.2244 15.741 50.0394C15.3498 49.8545 15.0387 49.5735 14.8078 49.1971C14.577 48.8207 14.4615 48.3613 14.4615 47.8189V43.5979H15.5582ZM25.7214 43.5979V44.488H23.9416V50.25H22.8449V44.488H21.0555V43.5979H25.7214ZM32.958 50.317C32.3358 50.317 31.7617 50.1734 31.236 49.8863C30.7165 49.5927 30.3028 49.1876 29.995 48.6707C29.6934 48.1474 29.5428 47.5604 29.5428 46.9096C29.5428 46.2587 29.6934 45.6749 29.995 45.158C30.3028 44.6411 30.7165 44.2391 31.236 43.952C31.7617 43.6584 32.3358 43.5117 32.958 43.5117C33.5864 43.5117 34.1605 43.6584 34.68 43.952C35.2058 44.2391 35.6194 44.6411 35.921 45.158C36.2224 45.6749 36.3732 46.2587 36.3732 46.9096C36.3732 47.5604 36.2224 48.1474 35.921 48.6707C35.6194 49.1876 35.2058 49.5927 34.68 49.8863C34.1605 50.1734 33.5864 50.317 32.958 50.317ZM32.958 49.3694C33.4005 49.3694 33.795 49.2706 34.1413 49.0727C34.4876 48.8686 34.757 48.5815 34.9494 48.2113C35.148 47.8349 35.2476 47.4008 35.2476 46.9096C35.2476 46.4183 35.148 45.9876 34.9494 45.6174C34.757 45.2473 34.4876 44.9635 34.1413 44.7656C33.795 44.5677 33.4005 44.4689 32.958 44.4689C32.5155 44.4689 32.121 44.5677 31.7747 44.7656C31.4284 44.9635 31.1556 45.2473 30.957 45.6174C30.7646 45.9876 30.6684 46.4183 30.6684 46.9096C30.6684 47.4008 30.7646 47.8349 30.957 48.2113C31.1556 48.5815 31.4284 48.8686 31.7747 49.0727C32.121 49.2706 32.5155 49.3694 32.958 49.3694ZM41.6756 43.5979V44.488H38.8376V46.4501H41.0503V47.3403H38.8376V50.25H37.7409V43.5979H41.6756ZM46.8648 49.3694H49.1255V50.25H45.7681V43.5979H46.8648V49.3694ZM53.3811 50.317C52.7589 50.317 52.1848 50.1734 51.659 49.8863C51.1395 49.5927 50.7259 49.1876 50.418 48.6707C50.1164 48.1474 49.9659 47.5604 49.9659 46.9096C49.9659 46.2587 50.1164 45.6749 50.418 45.158C50.7259 44.6411 51.1395 44.2391 51.659 43.952C52.1848 43.6584 52.7589 43.5117 53.3811 43.5117C54.0095 43.5117 54.5836 43.6584 55.1031 43.952C55.6288 44.2391 56.0425 44.6411 56.3441 45.158C56.6455 45.6749 56.7963 46.2587 56.7963 46.9096C56.7963 47.5604 56.6455 48.1474 56.3441 48.6707C56.0425 49.1876 55.6288 49.5927 55.1031 49.8863C54.5836 50.1734 54.0095 50.317 53.3811 50.317ZM53.3811 49.3694C53.8236 49.3694 54.218 49.2706 54.5644 49.0727C54.9107 48.8686 55.1801 48.5815 55.3725 48.2113C55.5711 47.8349 55.6707 47.4008 55.6707 46.9096C55.6707 46.4183 55.5711 45.9876 55.3725 45.6174C55.1801 45.2473 54.9107 44.9635 54.5644 44.7656C54.218 44.5677 53.8236 44.4689 53.3811 44.4689C52.9385 44.4689 52.5441 44.5677 52.1978 44.7656C51.8514 44.9635 51.5787 45.2473 51.3801 45.6174C51.1876 45.9876 51.0914 46.4183 51.0914 46.9096C51.0914 47.4008 51.1876 47.8349 51.3801 48.2113C51.5787 48.5815 51.8514 48.8686 52.1978 49.0727C52.5441 49.2706 52.9385 49.3694 53.3811 49.3694ZM61.2136 50.317C60.5914 50.317 60.0176 50.1734 59.4916 49.8863C58.9721 49.5927 58.5584 49.1876 58.2506 48.6707C57.9492 48.1474 57.7984 47.5604 57.7984 46.9096C57.7984 46.2587 57.9492 45.6749 58.2506 45.158C58.5584 44.6411 58.9721 44.2391 59.4916 43.952C60.0176 43.6584 60.5914 43.5117 61.2136 43.5117C61.8421 43.5117 62.4162 43.6584 62.9357 43.952C63.4616 44.2391 63.8753 44.6411 64.1767 45.158C64.478 45.6749 64.6288 46.2587 64.6288 46.9096C64.6288 47.5604 64.478 48.1474 64.1767 48.6707C63.8753 49.1876 63.4616 49.5927 62.9357 49.8863C62.4162 50.1734 61.8421 50.317 61.2136 50.317ZM61.2136 49.3694C61.6562 49.3694 62.0506 49.2706 62.3969 49.0727C62.7433 48.8686 63.0126 48.5815 63.205 48.2113C63.4039 47.8349 63.5033 47.4008 63.5033 46.9096C63.5033 46.4183 63.4039 45.9876 63.205 45.6174C63.0126 45.2473 62.7433 44.9635 62.3969 44.7656C62.0506 44.5677 61.6562 44.4689 61.2136 44.4689C60.7711 44.4689 60.3767 44.5677 60.0303 44.7656C59.684 44.9635 59.4115 45.2473 59.2126 45.6174C59.0202 45.9876 58.924 46.4183 58.924 46.9096C58.924 47.4008 59.0202 47.8349 59.2126 48.2113C59.4115 48.5815 59.684 48.8686 60.0303 49.0727C60.3767 49.2706 60.7711 49.3694 61.2136 49.3694ZM70.672 45.5791C70.672 45.9173 70.5919 46.2365 70.4315 46.5363C70.2711 46.8361 70.0147 47.0819 69.6619 47.2733C69.3091 47.4583 68.8569 47.5509 68.3054 47.5509H67.0933V50.25H65.9966V43.5979H68.3054C68.8184 43.5979 69.2514 43.6871 69.6042 43.8659C69.9633 44.0381 70.2295 44.2743 70.4027 44.5741C70.5823 44.874 70.672 45.209 70.672 45.5791ZM68.3054 46.6607C68.7222 46.6607 69.0335 46.5681 69.2386 46.3831C69.4438 46.1917 69.5465 45.9237 69.5465 45.5791C69.5465 44.8517 69.1328 44.488 68.3054 44.488H67.0933V46.6607H68.3054ZM72.4491 50.317C72.2505 50.317 72.0836 50.25 71.9489 50.116C71.8142 49.982 71.7468 49.8162 71.7468 49.6183C71.7468 49.4204 71.8142 49.2546 71.9489 49.1206C72.0836 48.9866 72.2505 48.9196 72.4491 48.9196C72.6415 48.9196 72.8051 48.9866 72.9398 49.1206C73.0744 49.2546 73.1418 49.4204 73.1418 49.6183C73.1418 49.8162 73.0744 49.982 72.9398 50.116C72.8051 50.25 72.6415 50.317 72.4491 50.317ZM78.5 43.5979V50.25H77.4033V43.5979H78.5ZM85.7217 50.25H84.625L81.3253 45.2824V50.25H80.2285V43.5883H81.3253L84.625 48.5463V43.5883H85.7217V50.25ZM91.77 43.5979V44.488H89.9902V50.25H88.8935V44.488H87.1041V43.5979H91.77ZM96.2189 50.317C95.5969 50.317 95.0228 50.1734 94.4968 49.8863C93.9773 49.5927 93.5637 49.1876 93.2558 48.6707C92.9545 48.1474 92.8037 47.5604 92.8037 46.9096C92.8037 46.2587 92.9545 45.6749 93.2558 45.158C93.5637 44.6411 93.9773 44.2391 94.4968 43.952C95.0228 43.6584 95.5969 43.5117 96.2189 43.5117C96.8475 43.5117 97.4214 43.6584 97.9409 43.952C98.4669 44.2391 98.8805 44.6411 99.1819 45.158C99.4835 45.6749 99.634 46.2587 99.634 46.9096C99.634 47.5604 99.4835 48.1474 99.1819 48.6707C98.8805 49.1876 98.4669 49.5927 97.9409 49.8863C97.4214 50.1734 96.8475 50.317 96.2189 50.317ZM96.2189 49.3694C96.6614 49.3694 97.0558 49.2706 97.4021 49.0727C97.7485 48.8686 98.0178 48.5815 98.2102 48.2113C98.4091 47.8349 98.5085 47.4008 98.5085 46.9096C98.5085 46.4183 98.4091 45.9876 98.2102 45.6174C98.0178 45.2473 97.7485 44.9635 97.4021 44.7656C97.0558 44.5677 96.6614 44.4689 96.2189 44.4689C95.7763 44.4689 95.3819 44.5677 95.0356 44.7656C94.6892 44.9635 94.4167 45.2473 94.2178 45.6174C94.0254 45.9876 93.9292 46.4183 93.9292 46.9096C93.9292 47.4008 94.0254 47.8349 94.2178 48.2113C94.4167 48.5815 94.6892 48.8686 95.0356 49.0727C95.3819 49.2706 95.7763 49.3694 96.2189 49.3694ZM108.628 45.5121C108.455 45.1803 108.215 44.9314 107.907 44.7656C107.599 44.5933 107.243 44.5071 106.839 44.5071C106.397 44.5071 106.002 44.606 105.656 44.8039C105.31 45.0018 105.037 45.2824 104.838 45.6461C104.646 46.0099 104.55 46.431 104.55 46.9096C104.55 47.3881 104.646 47.8124 104.838 48.1826C105.037 48.5463 105.31 48.827 105.656 49.0249C106.002 49.2228 106.397 49.3216 106.839 49.3216C107.436 49.3216 107.92 49.1557 108.292 48.8239C108.664 48.492 108.892 48.0421 108.975 47.4743H106.464V46.6033H110.148V47.4551C110.078 47.972 109.892 48.4475 109.591 48.8813C109.296 49.3151 108.907 49.663 108.426 49.9246C107.952 50.1799 107.423 50.3074 106.839 50.3074C106.211 50.3074 105.637 50.1639 105.117 49.8767C104.598 49.5831 104.184 49.178 103.876 48.6611C103.575 48.1443 103.424 47.5604 103.424 46.9096C103.424 46.2587 103.575 45.6749 103.876 45.158C104.184 44.6411 104.598 44.2391 105.117 43.952C105.643 43.6584 106.217 43.5117 106.839 43.5117C107.551 43.5117 108.183 43.6871 108.734 44.0381C109.292 44.3827 109.696 44.874 109.946 45.5121H108.628ZM114.992 50.25L113.453 47.5891H112.616V50.25H111.519V43.5979H113.828C114.341 43.5979 114.774 43.6871 115.126 43.8659C115.486 44.0446 115.752 44.2839 115.925 44.5837C116.104 44.8835 116.194 45.2185 116.194 45.5887C116.194 46.0225 116.066 46.4183 115.81 46.7756C115.559 47.1266 115.171 47.3659 114.645 47.4934L116.3 50.25H114.992ZM112.616 46.7181H113.828C114.238 46.7181 114.546 46.616 114.751 46.4119C114.963 46.2078 115.069 45.9333 115.069 45.5887C115.069 45.2441 114.966 44.9761 114.761 44.7847C114.556 44.5868 114.245 44.488 113.828 44.488H112.616V46.7181ZM120.935 50.317C120.313 50.317 119.739 50.1734 119.213 49.8863C118.694 49.5927 118.28 49.1876 117.972 48.6707C117.671 48.1474 117.52 47.5604 117.52 46.9096C117.52 46.2587 117.671 45.6749 117.972 45.158C118.28 44.6411 118.694 44.2391 119.213 43.952C119.739 43.6584 120.313 43.5117 120.935 43.5117C121.564 43.5117 122.138 43.6584 122.657 43.952C123.183 44.2391 123.597 44.6411 123.898 45.158C124.2 45.6749 124.351 46.2587 124.351 46.9096C124.351 47.5604 124.2 48.1474 123.898 48.6707C123.597 49.1876 123.183 49.5927 122.657 49.8863C122.138 50.1734 121.564 50.317 120.935 50.317ZM120.935 49.3694C121.378 49.3694 121.772 49.2706 122.119 49.0727C122.465 48.8686 122.734 48.5815 122.927 48.2113C123.126 47.8349 123.225 47.4008 123.225 46.9096C123.225 46.4183 123.126 45.9876 122.927 45.6174C122.734 45.2473 122.465 44.9635 122.119 44.7656C121.772 44.5677 121.378 44.4689 120.935 44.4689C120.493 44.4689 120.098 44.5677 119.752 44.7656C119.406 44.9635 119.133 45.2473 118.934 45.6174C118.742 45.9876 118.646 46.4183 118.646 46.9096C118.646 47.4008 118.742 47.8349 118.934 48.2113C119.133 48.5815 119.406 48.8686 119.752 49.0727C120.098 49.2706 120.493 49.3694 120.935 49.3694ZM134.425 43.5979L132.443 50.25H131.202L129.797 45.2154L128.306 50.25L127.075 50.2596L125.18 43.5979H126.344L127.729 49.0153L129.23 43.5979H130.461L131.856 48.9866L133.251 43.5979H134.425ZM139.937 43.5979V44.488H138.158V50.25H137.061V44.488H135.272V43.5979H139.937ZM146.676 43.5979V50.25H145.579V47.3403H142.433V50.25H141.337V43.5979H142.433V46.4501H145.579V43.5979H146.676ZM152.478 46.3257V47.2446H148.524V46.3257H152.478Z" fill="#FF8E03"/>
<path d="M173.164 9.57141H180.379V16.75" stroke="white" stroke-width="3.5"/>
<path d="M180.379 2.39282H187.594V9.57139" stroke="#FF8E03" stroke-width="3.5"/>
<path fill-rule="evenodd" clip-rule="evenodd" d="M132.703 18.6195C134.034 20.0153 135.886 22.7878 135.886 22.7878C136.637 21.5946 137.737 20.0153 139.068 18.6195C140.904 16.6941 143.17 15.1531 145.549 15.1531C150.17 15.1531 153.924 19.7999 153.924 25.5219C153.924 31.244 150.17 35.8909 145.549 35.8909C143.17 35.8909 140.904 34.3499 139.068 32.4244C137.737 31.0286 136.637 29.4493 135.886 28.2563C135.886 28.2563 134.034 31.0286 132.703 32.4244C130.867 34.3499 128.601 35.8909 126.222 35.8909C121.601 35.8909 117.848 31.244 117.848 25.5219C117.848 19.7999 121.601 15.1531 126.222 15.1531C128.601 15.1531 130.867 16.6941 132.703 18.6195ZM134.323 25.5219C133.711 26.5717 132.541 28.4125 131.037 29.9901C129.661 31.4337 128.004 32.7005 126.222 32.7005C123.022 32.7005 120.424 29.4845 120.424 25.5219C120.424 21.5595 123.022 18.3435 126.222 18.3435C128.004 18.3435 129.661 19.6101 131.037 21.0538C132.541 22.6314 133.711 24.4724 134.323 25.5219ZM137.448 25.5219C138.061 26.5717 139.23 28.4125 140.734 29.9901C142.11 31.4337 143.767 32.7005 145.549 32.7005C148.749 32.7005 151.347 29.4845 151.347 25.5219C151.347 21.5595 148.749 18.3435 145.549 18.3435C143.767 18.3435 142.11 19.6101 140.734 21.0538C139.23 22.6314 138.061 24.4724 137.448 25.5219Z" fill="white"/>
<path d="M149 13L145 9.64072L148.947 9L149 13Z" fill="#FF8E03" stroke="#FF8E03"/>
<path d="M137.174 20.8054L146.709 9.57141L147.912 11.9643L139.047 22.996L137.174 20.8054Z" fill="#FF8E03"/>
</svg>
