<svg width="197" height="57" viewBox="0 0 197 57" fill="none" xmlns="http://www.w3.org/2000/svg">
<path d="M125.47 20.0996C130.516 20.0996 138.932 29.206 138.995 29.2749C138.995 29.2749 130.563 38.8594 125.47 38.4502C120.422 38.0443 116.301 34.3424 116.301 29.2749C116.301 24.2078 120.406 20.1 125.47 20.0996ZM125.809 23.5578C122.658 23.558 120.102 26.1178 120.102 29.2749C120.102 32.432 122.658 34.9917 125.809 34.992C128.96 34.992 133.958 29.2749 133.958 29.2749C133.958 29.2749 128.96 23.5578 125.809 23.5578Z" fill="white"/>
<path d="M147.482 20.0996C142.436 20.0996 134.02 29.206 133.957 29.2749C133.957 29.2749 142.389 38.8594 147.482 38.4502C152.53 38.0443 156.651 34.3424 156.651 29.2749C156.651 24.2078 152.546 20.1 147.482 20.0996ZM147.143 23.5578C150.294 23.558 152.847 26.1178 152.848 29.2749C152.848 32.432 150.294 34.9917 147.143 34.992C143.992 34.992 138.994 29.2749 138.994 29.2749C138.994 29.2749 143.992 23.5578 147.143 23.5578Z" fill="white"/>
<path d="M145.96 26.5757L144.947 23.7067L138.469 30.0026L137.043 31.3478L135.632 32.6954L134.206 33.9617L133.852 34.2655L133.481 34.5695L133.087 34.8872L132.677 35.2026L132.28 35.5064L131.819 35.8496L131.462 36.1001L131.015 36.4039L130.632 36.6545L130.171 36.9328L129.925 37.072L129.682 37.2112L129.443 37.3411L129.221 37.4615L128.942 37.6054L128.678 37.7261L128.467 37.8166L128.256 37.9092L128.152 37.9486L128.059 37.988L127.967 38.0298L127.848 38.0693L127.702 38.1203L127.57 38.1597L127.427 38.2015L127.255 38.2524L127.083 38.2918L126.859 38.3452L126.634 38.3847L126.384 38.4241L126.133 38.4519H125.565L125.011 38.3987L124.457 38.3198L124.114 38.2524L123.822 38.2015L123.349 38.0693L122.807 37.9092L122.242 37.698L121.963 37.5798C121.955 37.5764 121.687 37.4648 121.764 37.4871C127.227 39.077 128.325 34.194 128.335 34.1472L131.715 31.5055L133.087 30.1325L134.38 28.7339L135.817 27.282L137.125 26.1199L138.747 24.6681L140.08 23.585L142.502 21.2854L139.679 20.2904L149.208 17.041L145.96 26.5757Z" fill="#E86E2F"/>
<path d="M2.20703 38V10.8359H6.49046V38H2.20703ZM13.1637 38V19.0185H17.2988V21.3379C17.9416 20.4596 18.7389 19.7793 19.6908 19.2969C20.655 18.8145 21.8109 18.5732 23.1583 18.5732C24.6541 18.5732 25.8532 18.8268 26.7556 19.334C27.658 19.8288 28.338 20.4905 28.7954 21.3193C29.2651 22.1357 29.5742 23.0387 29.7225 24.0283C29.8832 25.0054 29.9637 25.9704 29.9637 26.9228V38H25.8471V26.9415C25.8471 25.1106 25.5936 23.7438 25.0868 22.8408C24.5922 21.9378 23.6775 21.4863 22.3424 21.4863C21.3411 21.4863 20.5067 21.7152 19.8391 22.1728C19.184 22.6182 18.6709 23.2181 18.3001 23.9728C17.9292 24.7147 17.6634 25.5312 17.5027 26.4219C17.3544 27.3125 17.2864 28.2031 17.2988 29.0937V38H13.1637ZM43.3865 38.2969C42.4098 38.2969 41.4827 38.1237 40.605 37.7772C39.7273 37.4186 39.0102 36.8248 38.4541 35.996C37.8978 35.155 37.6196 34.0045 37.6196 32.5449V21.8203H35.005V19.0185H37.6381L37.805 13.1553L41.7547 12.1162V19.0185H45.9268V21.8203H41.7547V32.0995C41.7547 33.287 41.9771 34.1097 42.4221 34.5674C42.8672 35.0127 43.4297 35.2353 44.1097 35.2353C44.4187 35.2353 44.7833 35.1859 45.2036 35.0868C45.624 34.9757 46.0628 34.8272 46.5202 34.6415L47.1876 37.4062C46.5449 37.7031 45.9021 37.9259 45.2592 38.0741C44.6164 38.2228 43.9922 38.2969 43.3865 38.2969ZM59.8502 38.4453C57.8477 38.4453 56.2097 38 54.9364 37.1094C53.6632 36.2187 52.7236 35.0189 52.1178 33.5098C51.5121 32.0007 51.2093 30.3306 51.2093 28.5C51.2093 26.4342 51.543 24.6591 52.2106 23.1748C52.8781 21.6904 53.8424 20.5524 55.1032 19.7607C56.3766 18.9691 57.9094 18.5732 59.7019 18.5732C61.4697 18.5732 62.9222 18.9629 64.0596 19.7422C65.2091 20.5091 66.0621 21.5605 66.6185 22.8965C67.1872 24.2324 67.4715 25.7476 67.4715 27.4424C67.4715 27.4918 67.4653 27.6588 67.453 27.9433C67.453 28.2278 67.4468 28.5185 67.4342 28.8154C67.4342 29.0999 67.4281 29.2978 67.4157 29.4091H55.3444C55.3691 30.3618 55.5174 31.308 55.7894 32.248C56.0737 33.1882 56.5373 33.9675 57.18 34.5859C57.823 35.2044 58.6946 35.5136 59.7947 35.5136C61.0804 35.5136 62.0322 35.1797 62.6502 34.5116C63.2683 33.8314 63.7382 33.0583 64.0596 32.1924L67.1563 32.879C66.872 33.9798 66.3897 34.9507 65.7099 35.792C65.0422 36.6208 64.2141 37.2702 63.2251 37.7402C62.2361 38.2102 61.1113 38.4453 59.8502 38.4453ZM55.3444 26.7002H63.5961C63.6084 24.9807 63.3117 23.6881 62.706 22.8223C62.1003 21.944 61.0681 21.5049 59.6093 21.5049C58.781 21.5049 58.0886 21.6842 57.5325 22.043C56.9885 22.3893 56.5558 22.8408 56.2344 23.3974C55.9254 23.9417 55.7028 24.5107 55.5668 25.1045C55.431 25.6859 55.3567 26.2179 55.3444 26.7002ZM73.644 38V10.6504H77.7606V38H73.644ZM85.1199 38V10.6504H89.2364V38H85.1199ZM101.194 38.4453C100.057 38.4453 99.0309 38.2536 98.1162 37.8701C97.2138 37.4868 96.5029 36.9239 95.9838 36.1817C95.4645 35.4272 95.2051 34.5054 95.2051 33.417C95.2051 32.2295 95.4398 31.2709 95.9095 30.5411C96.3795 29.8112 97.0284 29.2422 97.8565 28.8339C98.6972 28.4133 99.6739 28.0856 100.786 27.8507C101.899 27.6032 103.098 27.3804 104.384 27.1826L106.628 26.8116V26.1065C106.628 25.0427 106.547 24.1768 106.386 23.5088C106.226 22.8284 105.892 22.3275 105.385 22.0058C104.878 21.6719 104.1 21.5049 103.049 21.5049C101.689 21.5049 100.595 21.6842 99.7665 22.043C98.9507 22.4017 98.147 22.8408 97.3559 23.3603C97.3559 23.3603 97.2757 23.2366 97.1148 22.9893C96.9541 22.7418 96.7626 22.4573 96.5402 22.1357C96.3299 21.8141 96.1445 21.5296 95.9838 21.2822C95.8231 21.0348 95.7427 20.9111 95.7427 20.9111C96.8058 20.1442 97.8999 19.5628 99.0247 19.167C100.15 18.7712 101.54 18.5732 103.197 18.5732C105.459 18.5732 107.283 19.1175 108.667 20.206C110.052 21.2822 110.744 23.0016 110.744 25.3643V38H107.202L106.868 35.8105C106.25 36.6764 105.447 37.3321 104.458 37.7772C103.481 38.2228 102.393 38.4453 101.194 38.4453ZM101.713 35.5321C102.838 35.5321 103.778 35.2911 104.532 34.8085C105.299 34.3261 105.997 33.7324 106.628 33.0272V29.3906L104.143 29.873C102.783 30.1452 101.726 30.3988 100.972 30.6337C100.23 30.8688 99.7171 31.1719 99.4327 31.5428C99.1484 31.9141 99.0186 32.4335 99.0432 33.1016C99.0682 33.8067 99.2535 34.3881 99.5996 34.8458C99.9459 35.3034 100.65 35.5321 101.713 35.5321ZM162.43 43.8819C162.121 43.8819 161.794 43.8508 161.448 43.7891C161.102 43.7397 160.756 43.6715 160.409 43.585L160.892 40.2266C161.089 40.2389 161.275 40.2574 161.448 40.2821C161.633 40.3071 161.8 40.3194 161.948 40.3194C162.665 40.3194 163.296 40.2142 163.84 40.004C164.384 39.7936 164.872 39.3791 165.305 38.7607C165.737 38.1422 166.145 37.2269 166.529 36.0147L166.751 35.2911L159.834 19.0185H164.081L168.865 31.0605L173.593 19.0185H177.673L170.46 36.8125C169.804 38.4453 169.118 39.7812 168.401 40.8203C167.684 41.8594 166.85 42.6263 165.898 43.121C164.946 43.6159 163.79 43.8696 162.43 43.8819Z" fill="white"/>
<path d="M173 13H183V23" stroke="white" stroke-width="4"/>
<path d="M181 4H191V14" stroke="#E86E2F" stroke-width="4"/>
</svg>
